<svg width="185" height="185" viewBox="0 0 185 185" fill="none" xmlns="http://www.w3.org/2000/svg">
<g clip-path="url(#clip0)">
<path d="M116.458 3.15513C80.328 -6.52498 41.925 6.51071 19.1556 36.186C-3.61382 65.8599 -6.26667 106.329 12.436 138.722C24.6476 160.005 44.8657 175.52 68.5848 181.81C76.4404 183.921 84.5373 184.993 92.6722 185C125.688 184.934 156.166 167.278 172.647 138.67C189.128 110.061 189.112 74.8373 172.606 46.2443C160.395 24.9594 140.177 9.44438 116.458 3.15513ZM175.893 114.822C166.856 148.542 138.399 173.497 103.787 178.055C69.1775 182.611 35.2294 165.87 17.7741 135.639C2.38898 108.949 2.38475 76.0861 17.76 49.3925C33.1367 22.6988 61.5675 6.21579 92.3731 6.13254C99.9647 6.13818 107.523 7.14006 114.855 9.11136C136.966 15.0351 155.819 29.5003 167.265 49.3247C178.712 69.1506 181.814 92.7102 175.889 114.822H175.893Z" fill="white" fill-opacity="0.1"/>
<path d="M55.511 28.4235C57.9098 27.0603 60.3792 25.8256 62.9093 24.7236C63.9197 24.2833 64.6182 23.3379 64.7409 22.2429C64.8651 21.1479 64.3938 20.0698 63.5076 19.4164C62.6215 18.7617 61.4531 18.6305 60.4441 19.0707C57.7094 20.2631 55.0411 21.598 52.4475 23.0712C37.3713 31.7 25.5435 45.0391 18.783 61.0395C18.117 62.6072 18.8493 64.4177 20.417 65.0823C21.9862 65.7469 23.7952 65.016 24.4598 63.4468C30.6955 48.6868 41.6046 36.382 55.511 28.4235Z" fill="white" fill-opacity="0.1"/>
<path d="M164.625 119.884C163.873 119.563 163.023 119.556 162.264 119.863C161.507 120.169 160.9 120.764 160.581 121.518C154.341 136.282 143.426 148.59 129.511 156.548C124.66 159.329 119.515 161.563 114.17 163.209C112.71 163.657 111.797 165.108 112.027 166.619C112.255 168.129 113.558 169.244 115.086 169.238C115.392 169.241 115.698 169.194 115.992 169.103C121.774 167.319 127.343 164.902 132.595 161.893C147.671 153.265 159.497 139.925 166.259 123.925C166.924 122.357 166.193 120.548 164.625 119.884Z" fill="white" fill-opacity="0.1"/>
<path d="M129.256 138.012C129.298 137.984 129.348 137.981 129.391 137.954C129.463 137.887 129.531 137.816 129.595 137.741C145.588 124.6 153.473 104.005 150.346 83.5427C150.346 83.506 150.325 83.475 150.325 83.4411C148.18 69.2031 140.783 56.2832 129.592 47.2239C129.514 47.159 129.472 47.0701 129.389 47.0109C129.355 46.9897 129.314 46.9869 129.28 46.9657C113.059 33.906 91.1311 30.4249 71.6636 37.819C71.6326 37.8345 71.5987 37.819 71.5648 37.8444L71.5253 37.8754C65.7977 39.9808 60.4736 43.0513 55.7818 46.953C55.7394 46.9812 55.69 46.9841 55.6463 47.0109C55.5757 47.0786 55.5066 47.1492 55.4431 47.2239C39.4512 60.3655 31.5674 80.9618 34.6944 101.423C34.6944 101.459 34.7155 101.49 34.7155 101.524C37.7945 122.27 51.7898 139.758 71.356 147.31C90.9222 154.861 113.037 151.31 129.256 138.012ZM104.709 106.774C104.623 106.822 104.538 106.874 104.456 106.93L101.824 108.472L96.4354 111.585C95.6 112.082 95.0525 112.948 94.9622 113.916C92.9585 114.127 90.9335 114.06 88.9481 113.719C88.4994 112.223 87.5003 110.955 86.1527 110.167L80.3941 106.841C79.0309 106.065 77.4237 105.837 75.8997 106.203C75.1264 105.289 74.4322 104.31 73.8254 103.278C73.2412 102.247 72.7459 101.166 72.3452 100.051C73.4289 98.9067 74.0314 97.3883 74.0258 95.8121V89.1532C74.0286 87.5841 73.4275 86.0742 72.348 84.9368C73.0493 83.0615 74.006 81.292 75.1899 79.6777C76.0691 80.1038 77.102 80.0587 77.9402 79.5578L80.2247 78.2356C80.2586 78.2158 80.2981 78.213 80.332 78.1918C80.4195 78.1438 80.5041 78.0916 80.5846 78.0352L83.2177 76.4929L88.6052 73.38C89.4406 72.8833 89.9881 72.0169 90.0798 71.0489C92.0751 70.8386 94.0901 70.9035 96.0685 71.2408C96.5257 72.7408 97.536 74.0107 98.8949 74.7911L104.635 78.1269C106.003 78.9129 107.621 79.1443 109.155 78.7746C109.921 79.6876 110.61 80.6612 111.217 81.6871C111.801 82.7186 112.296 83.7995 112.697 84.9143C111.612 86.0587 111.011 87.577 111.016 89.1532V95.8121C111.013 97.3813 111.613 98.8912 112.693 100.029C111.99 101.907 111.032 103.678 109.845 105.293C108.964 104.891 107.944 104.933 107.102 105.408L104.851 106.711C104.805 106.737 104.755 106.75 104.709 106.774ZM61.8608 134.424L77.3136 112.171L83.0723 115.494L71.5253 139.992L61.8608 134.424ZM40.4996 86.8602L67.8593 89.1532V95.8249L40.4657 98.108C40.072 94.3686 40.0819 90.5982 40.4954 86.8602H40.4996ZM123.421 50.1774L107.718 72.7916L101.96 69.4656L113.692 44.5852C117.129 46.0979 120.393 47.9775 123.427 50.1901L123.421 50.1774ZM144.54 98.0925L117.181 95.8121V89.1405L144.576 86.8573C144.97 90.5967 144.96 94.3672 144.545 98.1052L144.54 98.0925ZM128.189 130.821L113.834 110.167C115.822 107.767 117.393 105.051 118.482 102.131L143.512 104.221C141.178 114.42 135.842 123.685 128.189 130.821ZM137.906 66.2808C140.514 70.7991 142.431 75.6829 143.593 80.7685L118.485 82.8625C117.969 81.3922 117.327 79.9698 116.565 78.6109C115.767 77.2633 114.859 75.9863 113.845 74.7911L128.213 54.1383C132.032 57.6801 135.298 61.7737 137.906 66.2808ZM92.4307 40.0782C97.6757 40.088 102.89 40.8797 107.899 42.4276L97.1663 65.19C94.0873 64.6594 90.942 64.6495 87.8602 65.1618L77.1288 42.3994C82.086 40.8684 87.2435 40.0866 92.4307 40.0782ZM66.3184 47.0984C67.944 46.1684 69.6189 45.3288 71.3334 44.5795L83.0483 69.4741L80.0921 71.1914L77.3179 72.7887L61.5969 50.1774C63.1138 49.0668 64.6914 48.0396 66.3184 47.0984ZM56.8528 54.1439L71.205 74.8137C69.2182 77.2139 67.6491 79.9303 66.5597 82.8498L41.5283 80.76C43.8594 70.555 49.1976 61.2841 56.8528 54.1439ZM47.136 118.685C44.5269 114.166 42.6106 109.282 41.4479 104.197L66.5555 102.103C67.0776 103.57 67.7253 104.99 68.4915 106.345C69.2859 107.688 70.1933 108.962 71.2022 110.152L56.833 130.84C53.0132 127.294 49.7437 123.197 47.136 118.685ZM77.1542 142.501L87.8686 119.764C89.4349 120.051 91.0238 120.203 92.6156 120.22C94.1466 120.204 95.6748 120.063 97.1819 119.794L107.903 142.538C97.8803 145.605 87.1687 145.593 77.1542 142.501ZM113.713 140.401L101.999 115.491L104.956 113.774L107.73 112.177L123.451 134.788C120.428 137.012 117.169 138.896 113.733 140.401H113.713Z" fill="white" fill-opacity="0.1"/>
<path d="M95.7115 80.575C90.029 79.0524 84.0629 81.7575 81.4623 87.0335C78.8616 92.3096 80.3503 98.6892 85.0182 102.269C89.6861 105.849 96.2322 105.633 100.655 101.754C105.076 97.8736 106.141 91.4108 103.199 86.3167C101.572 83.479 98.8752 81.4103 95.7115 80.575ZM98.4857 94.0791C97.6574 97.1652 94.6094 99.1083 91.4627 98.5551C88.316 98.0006 86.1132 95.1346 86.3884 91.9512C86.6636 88.7678 89.3249 86.3224 92.521 86.3167C93.0629 86.3181 93.6033 86.3901 94.1268 86.5298C95.7059 86.9531 97.0535 87.9874 97.8705 89.4028C98.6875 90.8195 98.909 92.5029 98.4857 94.082V94.0791Z" fill="white" fill-opacity="0.1"/>
<path d="M74.0261 18.5011C74.0261 20.2029 72.6461 21.5829 70.9429 21.5829C69.2411 21.5829 67.8596 20.2029 67.8596 18.5011C67.8596 16.7979 69.2411 15.4178 70.9429 15.4178C72.6461 15.4178 74.0261 16.7979 74.0261 18.5011Z" fill="white" fill-opacity="0.1"/>
</g>
<defs>
<clipPath id="clip0">
<rect width="185" height="185" fill="white"/>
</clipPath>
</defs>
</svg>
